<?xml version="1.0" standalone="no"?>
<!DOCTYPE svg PUBLIC "-//W3C//DTD SVG 20010904//EN"
 "http://www.w3.org/TR/2001/REC-SVG-20010904/DTD/svg10.dtd">
<svg version="1.0" xmlns="http://www.w3.org/2000/svg"
 width="667.000000pt" height="667.000000pt" viewBox="0 0 667.000000 667.000000"
 preserveAspectRatio="xMidYMid meet">
<metadata>
Created by potrace 1.11, written by Peter Selinger 2001-2013
</metadata>
<g transform="translate(0.000000,667.000000) scale(0.100000,-0.100000)"
fill="#000000" stroke="none">
<path d="M0 3335 l0 -3335 3335 0 3335 0 0 3335 0 3335 -3335 0 -3335 0 0
-3335z m5553 3089 c175 -45 323 -167 402 -329 70 -146 66 80 63 -3049 l-3
-2820 -692 688 c-381 379 -693 684 -693 678 0 -5 29 -119 65 -253 36 -134 65
-247 65 -251 0 -5 -802 -8 -1782 -8 -1976 0 -1842 -4 -1985 66 -140 70 -254
202 -310 361 l-28 78 -3 2140 c-3 2376 -7 2225 63 2370 77 159 216 275 390
326 56 16 193 18 2224 18 1935 1 2170 -1 2224 -15z"/>
<path d="M3352 5417 c-308 -933 -817 -1668 -1457 -2103 l-109 -74 822 0 822 0
0 1200 c0 660 -1 1200 -2 1200 -2 0 -36 -100 -76 -223z"/>
<path d="M3650 4202 l0 -962 504 0 503 0 -142 143 c-203 205 -331 387 -486
697 -131 262 -247 584 -330 914 -22 88 -42 163 -45 165 -2 2 -4 -428 -4 -957z"/>
<path d="M1366 2978 c33 -99 102 -237 165 -333 71 -106 270 -305 375 -373 l81
-52 1179 2 1179 3 110 38 c151 52 301 125 420 205 108 73 266 218 345 318 60
74 160 232 160 251 0 11 -333 13 -2019 13 l-2020 0 25 -72z"/>
</g>
</svg>
